<svg width="68" height="77" viewBox="0 0 68 77" fill="none" xmlns="http://www.w3.org/2000/svg">
<mask id="mask0_116_1014" style="mask-type:luminance" maskUnits="userSpaceOnUse" x="0" y="0" width="68" height="77">
<path d="M67.8 0H0V76.98H67.8V0Z" fill="white"/>
</mask>
<g mask="url(#mask0_116_1014)">
<path d="M49.6399 44.3589C45.7526 44.3563 42.0253 42.8107 39.2766 40.062C36.5279 37.3133 34.9824 33.586 34.9797 29.6988C34.9824 25.8115 36.5279 22.0842 39.2766 19.3355C42.0253 16.5868 45.7526 15.0417 49.6399 15.0391C53.5263 15.0444 57.2521 16.5903 60.0002 19.3384C62.7484 22.0865 64.2948 25.8123 64.3 29.6988C64.2948 33.5852 62.7484 37.311 60.0002 40.0591C57.2521 42.8072 53.5263 44.3536 49.6399 44.3589Z" stroke="#52452D" stroke-width="7" stroke-miterlimit="10"/>
<path d="M12.13 68.7717C18.8292 68.7717 24.26 63.3409 24.26 56.6417C24.26 49.9425 18.8292 44.5117 12.13 44.5117C5.43079 44.5117 0 49.9425 0 56.6417C0 63.3409 5.43079 68.7717 12.13 68.7717Z" fill="#00A5A5"/>
<path d="M23.3399 12.92C26.9077 12.92 29.7999 10.0278 29.7999 6.46C29.7999 2.89224 26.9077 0 23.3399 0C19.7721 0 16.8799 2.89224 16.8799 6.46C16.8799 10.0278 19.7721 12.92 23.3399 12.92Z" fill="#E61946"/>
<path d="M17.6101 58.2582C13.9266 54.5701 11.8577 49.5708 11.8577 44.3583C11.8577 39.1458 13.9266 34.1465 17.6101 30.4584C21.2991 26.7804 26.2959 24.7148 31.5051 24.7148C36.7144 24.7148 41.7111 26.7804 45.4001 30.4584C49.0787 34.1491 51.1443 39.1474 51.1443 44.3583C51.1443 49.5692 49.0787 54.5675 45.4001 58.2582C41.7111 61.9362 36.7144 64.0014 31.5051 64.0014C26.2959 64.0014 21.2991 61.9362 17.6101 58.2582Z" stroke="white" stroke-width="7" stroke-miterlimit="10"/>
<path d="M45.3999 58.2617L61.6399 74.5017" stroke="white" stroke-width="7" stroke-miterlimit="10"/>
</g>
</svg>
