<svg width="145" height="47" viewBox="0 0 145 47" fill="none" xmlns="http://www.w3.org/2000/svg">
<path d="M121.715 22.4911V21.625H126.789C129.113 21.625 130.733 21.7711 131.65 22.0632C133.002 22.4911 134.099 23.2893 134.941 24.4578C135.872 25.7485 136.337 27.2328 136.337 28.9107C136.337 30.0519 136.106 31.1151 135.644 32.1001C135.189 33.0783 134.588 33.8663 133.841 34.4641C133.222 34.9668 132.479 35.3235 131.609 35.534C130.74 35.7378 129.863 35.8397 128.98 35.8397H121.715V34.9838H122.306L122.499 34.994C122.751 34.994 122.955 34.943 123.111 34.8411C123.274 34.7392 123.389 34.6034 123.457 34.4335C123.505 34.3045 123.529 34.0056 123.529 33.5368V24.0298C123.529 23.4931 123.495 23.1467 123.427 22.9904C123.332 22.7798 123.179 22.6338 122.968 22.5523C122.846 22.5115 122.428 22.4911 121.715 22.4911ZM125.424 34.7392H128.501C128.807 34.7392 129.313 34.6849 130.02 34.5762C130.733 34.4675 131.242 34.335 131.548 34.1788C131.996 33.9478 132.431 33.5776 132.852 33.0681C133.273 32.5518 133.596 31.9371 133.82 31.2238C134.051 30.5037 134.167 29.6817 134.167 28.7578C134.167 27.8408 134.051 27.046 133.82 26.3734C133.596 25.7009 133.253 25.0963 132.791 24.5597C132.336 24.023 131.826 23.6154 131.263 23.3369C130.706 23.0516 130.081 22.8715 129.388 22.7968C129.014 22.7629 128.389 22.7459 127.513 22.7459H125.424V34.7392Z" fill="#1D1D1B"/>
<path d="M106.695 21.625H114.031C115.424 21.625 116.477 21.7711 117.19 22.0632C117.904 22.3485 118.45 22.7663 118.831 23.3165C119.218 23.86 119.412 24.4917 119.412 25.2118C119.412 25.9523 119.225 26.6112 118.851 27.1886C118.478 27.7592 117.938 28.211 117.231 28.5439C116.531 28.8699 115.601 29.0398 114.439 29.0533L118.189 33.6387C118.495 34.0192 118.695 34.2535 118.79 34.3418C119.028 34.5524 119.276 34.7121 119.534 34.8208C119.799 34.9294 120.094 34.9838 120.42 34.9838H120.675V35.8397H117.435L112.218 29.0533H110.394V33.4349C110.394 33.9241 110.411 34.2298 110.445 34.352C110.519 34.583 110.638 34.746 110.801 34.8411C110.971 34.9362 111.297 34.9838 111.78 34.9838H112.146V35.8397H106.695V34.9838H107.184C107.551 34.9838 107.795 34.96 107.918 34.9125C108.047 34.8649 108.159 34.7834 108.254 34.6679C108.356 34.5456 108.427 34.3928 108.468 34.2094C108.481 34.1346 108.492 33.7916 108.498 33.1802V23.8668C108.498 23.4592 108.458 23.1671 108.376 22.9904C108.295 22.8138 108.179 22.6881 108.03 22.6134C107.887 22.5319 107.636 22.4911 107.276 22.4911H106.695V21.625ZM110.394 22.7357V28.0853H113.318C114.31 28.0853 115.006 28.0242 115.407 27.9019C115.978 27.7389 116.426 27.44 116.752 27.0052C117.085 26.5704 117.251 26.0168 117.251 25.3443C117.251 24.7736 117.133 24.2947 116.895 23.9075C116.657 23.5135 116.331 23.2214 115.917 23.0312C115.509 22.8342 114.898 22.7357 114.082 22.7357H110.394Z" fill="#1D1D1B"/>
<path d="M97.5444 21.3828C98.8419 21.3828 100.014 21.6953 101.06 22.3203C102.194 22.9928 103.064 23.8657 103.668 24.939C104.28 26.0124 104.585 27.2555 104.585 28.6685C104.585 30.8559 103.906 32.6391 102.548 34.0181C101.189 35.3971 99.4566 36.0867 97.3508 36.0867C95.0003 36.0867 93.139 35.2579 91.7668 33.6004C90.6459 32.2485 90.0854 30.6317 90.0854 28.75C90.0854 27.3506 90.4013 26.0973 91.0331 24.99C91.6649 23.8759 92.5616 22.9962 93.7232 22.3508C94.8848 21.7055 96.1586 21.3828 97.5444 21.3828ZM97.5444 22.4833C96.4846 22.4833 95.5743 22.7279 94.8135 23.217C94.0527 23.6993 93.4413 24.4126 92.9793 25.3568C92.5242 26.3011 92.2966 27.4661 92.2966 28.8519C92.2966 30.1766 92.5208 31.3009 92.9692 32.2247C93.4243 33.1418 94.0323 33.8449 94.7931 34.334C95.554 34.8231 96.4099 35.0677 97.361 35.0677C98.3052 35.0677 99.1408 34.8299 99.8676 34.3544C100.595 33.8721 101.196 33.118 101.671 32.0923C102.147 31.0597 102.385 29.915 102.385 28.6583C102.385 27.3812 102.147 26.2128 101.671 25.153C101.264 24.2427 100.724 23.5702 100.051 23.1355C99.3785 22.7007 98.543 22.4833 97.5444 22.4833Z" fill="#1D1D1B"/>
<path d="M85.8569 21.6274H86.5906L87.8847 26.3656L86.937 26.6305C86.4275 25.5368 86.0403 24.8032 85.7754 24.4296C85.3406 23.825 84.7972 23.346 84.145 22.9928C83.4997 22.6396 82.7864 22.4629 82.0052 22.4629C81.0881 22.4629 80.2423 22.7109 79.4679 23.2068C78.7003 23.6959 78.0753 24.416 77.593 25.367C77.1175 26.3181 76.8797 27.388 76.8797 28.5768C76.8797 29.7996 77.1209 30.8899 77.6032 31.8477C78.0923 32.8055 78.7512 33.5426 79.58 34.0589C80.4088 34.5752 81.3021 34.8333 82.2599 34.8333C83.1634 34.8333 84.0873 34.5752 85.0315 34.0589C85.9758 33.5426 86.7944 32.8191 87.4873 31.8885L88.3024 32.4489C87.8813 33.0739 87.4261 33.6037 86.937 34.0385C86.1626 34.7382 85.3576 35.2545 84.522 35.5874C83.6865 35.9202 82.7694 36.0867 81.7708 36.0867C79.563 36.0867 77.7696 35.2681 76.3906 33.6309C75.2493 32.2723 74.6787 30.6555 74.6787 28.7806C74.6787 27.4016 74.9946 26.155 75.6264 25.0409C76.2581 23.9201 77.1277 23.0302 78.2349 22.3712C79.349 21.7123 80.548 21.3828 81.8319 21.3828C82.518 21.3828 83.1532 21.4779 83.7374 21.6681C84.3284 21.8515 84.9262 22.1504 85.5308 22.5648L85.8569 21.6274Z" fill="#1D1D1B"/>
<path d="M58.9968 21.625H63.358L69.8286 32.2835V24.1724C69.8286 23.6901 69.781 23.3437 69.6859 23.1331C69.5908 22.9225 69.4481 22.7629 69.2579 22.6542C69.0677 22.5455 68.7858 22.4911 68.4122 22.4911H68.0453V21.625H72.804V22.4911H72.5492C72.128 22.4911 71.8427 22.5251 71.6933 22.593C71.4827 22.6881 71.3231 22.8614 71.2144 23.1127C71.1125 23.3641 71.0615 23.7173 71.0615 24.1724V35.8397H69.8286L62.0334 23.0312V33.1802C62.0334 33.744 62.0504 34.0871 62.0843 34.2094C62.1319 34.3656 62.2168 34.5083 62.3391 34.6373C62.4681 34.7664 62.6176 34.8547 62.7874 34.9023C62.9572 34.9498 63.3003 34.977 63.8166 34.9838V35.8397H58.9968V34.9838H59.2516C59.7407 34.9838 60.0701 34.9362 60.24 34.8411C60.4166 34.746 60.5525 34.583 60.6476 34.352C60.7427 34.1211 60.7902 33.7305 60.7902 33.1802V24.1724C60.7902 23.6086 60.7766 23.2656 60.7495 23.1433C60.6883 22.9123 60.5694 22.7459 60.3928 22.644C60.223 22.5421 59.8799 22.4911 59.3637 22.4911H58.9968V21.625Z" fill="#1D1D1B"/>
<path d="M49.9584 21.3828C51.2559 21.3828 52.4277 21.6953 53.4739 22.3203C54.6084 22.9928 55.4779 23.8657 56.0825 24.939C56.6939 26.0124 56.9996 27.2555 56.9996 28.6685C56.9996 30.8559 56.3202 32.6391 54.9616 34.0181C53.603 35.3971 51.8707 36.0867 49.7648 36.0867C47.4144 36.0867 45.553 35.2579 44.1808 33.6004C43.0599 32.2485 42.4995 30.6317 42.4995 28.75C42.4995 27.3506 42.8154 26.0973 43.4472 24.99C44.0789 23.8759 44.9756 22.9962 46.1373 22.3508C47.2989 21.7055 48.5726 21.3828 49.9584 21.3828ZM49.9584 22.4833C48.8987 22.4833 47.9884 22.7279 47.2276 23.217C46.4667 23.6993 45.8553 24.4126 45.3934 25.3568C44.9383 26.3011 44.7107 27.4661 44.7107 28.8519C44.7107 30.1766 44.9349 31.3009 45.3832 32.2247C45.8384 33.1418 46.4464 33.8449 47.2072 34.334C47.968 34.8231 48.824 35.0677 49.775 35.0677C50.7193 35.0677 51.5548 34.8299 52.2817 34.3544C53.0086 33.8721 53.6098 33.118 54.0853 32.0923C54.5608 31.0597 54.7986 29.915 54.7986 28.6583C54.7986 27.3812 54.5608 26.2128 54.0853 25.153C53.6777 24.2427 53.1376 23.5702 52.4651 23.1355C51.7926 22.7007 50.957 22.4833 49.9584 22.4833Z" fill="#1D1D1B"/>
<path d="M38.2707 21.6274H39.0044L40.2985 26.3656L39.3508 26.6305C38.8413 25.5368 38.4541 24.8032 38.1892 24.4296C37.7544 23.825 37.211 23.346 36.5588 22.9928C35.9135 22.6396 35.2002 22.4629 34.419 22.4629C33.5019 22.4629 32.6561 22.7109 31.8817 23.2068C31.1141 23.6959 30.4891 24.416 30.0068 25.367C29.5313 26.3181 29.2935 27.388 29.2935 28.5768C29.2935 29.7996 29.5347 30.8899 30.017 31.8477C30.5061 32.8055 31.165 33.5426 31.9938 34.0589C32.8226 34.5752 33.7159 34.8333 34.6737 34.8333C35.5772 34.8333 36.5011 34.5752 37.4453 34.0589C38.3896 33.5426 39.2082 32.8191 39.9011 31.8885L40.7163 32.4489C40.2951 33.0739 39.8399 33.6037 39.3508 34.0385C38.5764 34.7382 37.7714 35.2545 36.9358 35.5874C36.1003 35.9202 35.1832 36.0867 34.1846 36.0867C31.9768 36.0867 30.1834 35.2681 28.8044 33.6309C27.6632 32.2723 27.0925 30.6555 27.0925 28.7806C27.0925 27.4016 27.4084 26.155 28.0402 25.0409C28.6719 23.9201 29.5415 23.0302 30.6488 22.3712C31.7628 21.7123 32.9618 21.3828 34.2457 21.3828C34.9319 21.3828 35.567 21.4779 36.1512 21.6681C36.7422 21.8515 37.34 22.1504 37.9446 22.5648L38.2707 21.6274Z" fill="#1D1D1B"/>
<path d="M118.252 46.2063V40.2461H122.389V40.9385H119.067V42.8142H122.1L122.213 43.4979H119.067V45.5138H122.476V46.2063H118.252Z" fill="#1D1D1B"/>
<path d="M116.448 46.2939L114.616 43.9098H113.152V46.2063H112.337V40.2461H114.888C115.571 40.2461 116.091 40.4009 116.448 40.7106C116.804 41.0203 116.983 41.4732 116.983 42.0692C116.983 42.5484 116.851 42.9399 116.588 43.2437C116.325 43.5417 115.954 43.7287 115.475 43.8047L117.307 46.18L116.448 46.2939ZM113.152 43.2174H114.783C115.694 43.2174 116.15 42.8347 116.15 42.0692C116.15 41.3154 115.694 40.9385 114.783 40.9385H113.152V43.2174Z" fill="#1D1D1B"/>
<path d="M108.528 46.2063V40.9385H106.459V40.2461H111.42L111.306 40.9385H109.352V46.2063H108.528Z" fill="#1D1D1B"/>
<path d="M101.142 41.472V46.2051H100.397V40.2449H101.203L104.788 44.9517V40.2975L105.542 40.1836V46.2051H104.735L101.142 41.472Z" fill="#1D1D1B"/>
<path d="M94.9355 46.2063V40.2461H99.0726V40.9385H95.7507V42.8142H98.7834L98.8973 43.4979H95.7507V45.5138H99.1602V46.2063H94.9355Z" fill="#1D1D1B"/>
<path d="M93.746 45.757C93.1558 46.1135 92.4868 46.2917 91.7388 46.2917C90.8331 46.2917 90.094 46.0142 89.5213 45.459C88.9487 44.9039 88.6624 44.1589 88.6624 43.224C88.6624 42.2891 88.9487 41.544 89.5213 40.9889C90.0998 40.4338 90.8507 40.1562 91.7739 40.1562C92.5277 40.1562 93.1967 40.3345 93.7811 40.6909L93.6321 41.4096C93.0828 41.0357 92.4634 40.8487 91.7739 40.8487C91.0902 40.8487 90.5381 41.062 90.1173 41.4885C89.7025 41.9151 89.495 42.4936 89.495 43.224C89.495 43.9544 89.7025 44.5329 90.1173 44.9594C90.5322 45.386 91.0756 45.5993 91.7476 45.5993C92.5189 45.5993 93.1851 45.4035 93.746 45.012V45.757Z" fill="#1D1D1B"/>
<path fill-rule="evenodd" clip-rule="evenodd" d="M86.6401 45.5725H27.0188V44.6719H86.6401V45.5725Z" fill="#1D1D1B"/>
<path fill-rule="evenodd" clip-rule="evenodd" d="M145 45.2097H127.528V44.1289H145V45.2097Z" fill="#1D1D1B"/>
<path d="M23.056 32.6052V39.2064C22.5283 39.245 22.0006 39.2656 21.4653 39.2656C15.8858 39.2656 10.5253 37.0848 6.51881 33.1848C2.51231 29.2849 0.174359 23.972 0 18.3711H6.89553C6.98927 19.1085 7.1348 19.8384 7.331 20.5552C8.27522 24.0168 10.3255 27.071 13.1666 29.2481C16.0078 31.4253 19.4823 32.6047 23.056 32.6052Z" fill="#1D355E"/>
<path d="M23.0559 3.21173e-06V6.83262H22.7985C21.4085 6.87079 20.0457 7.2243 18.8148 7.86604C17.5839 8.50779 16.5174 9.42072 15.6972 10.5348C14.8771 11.6489 14.325 12.9346 14.0833 14.2932C13.8416 15.6518 13.9167 17.0474 14.3029 18.3727H6.80363C6.70917 17.67 6.66271 16.9617 6.66461 16.2527C6.66461 14.1175 7.08867 12.0032 7.91253 10.0307C8.7364 8.05817 9.94391 6.26604 11.4661 4.7567C12.9883 3.24737 14.7954 2.0504 16.784 1.23422C18.7726 0.418051 20.9039 -0.00133904 23.0559 3.21173e-06Z" fill="#F7A611"/>
<path d="M38.3665 18.3717H30.7176C29.9768 16.9919 28.8725 15.8382 27.5229 15.0342C26.1734 14.2301 24.6293 13.8059 23.0559 13.807V6.84375H23.3126C26.7353 6.90013 30.0486 8.05219 32.7604 10.1289C35.4723 12.2056 37.4383 15.0962 38.3665 18.3717Z" fill="#BDBBBC"/>
</svg>
